{"title":"Umphrey's McGee - 2016-02-03 - New Haven, CT (720p TourGigs Rip)","uid":13459203,"size":3000246495,"categoryP":"video","categoryS":"music_videos","magnet":"?xt=urn:btih:60a3895089ef7db57df6e89b456915656574c868&amp;dn=Umphrey%27s+McGee+-+2016-02-03+-+New+Haven%2C+CT+%28720p+TourGigs+Rip%29&amp;tr=udp%3A%2F%2Ftracker.leechers-paradise.org%3A6969&amp;tr=udp%3A%2F%2Fzer0day.ch%3A1337&amp;tr=udp%3A%2F%2Fopen.demonii.com%3A1337&amp;tr=udp%3A%2F%2Ftracker.coppersurfer.tk%3A6969&amp;tr=udp%3A%2F%2Fexodus.desync.com%3A6969","seeders":0,"leechers":1,"uploader":"NotHuman","files":8,"time":1454876120,"description":"Umphrey's McGee\r\nFebruary 3rd, 2016\r\nNew Haven, CT @ College Street Music Hall\r\nTourGigs HD Live Stream Rip 720p\r\n\r\nSource:\r\n\r\nTourGigs on-demand stream downloaded .TS file &gt; Handbrake 0.10.2 &gt; MP4 \r\n\r\nNotes:\r\n\r\nThe original transport stream (.TS) video file was downloaded from TourGig's server and encoded to H.264 MP4 using Handbrake set to High profile for format convenience.  Audio set to AC3 Passthru and not re-encoded.\r\n\r\n\r\nMediaInfo:\r\n\r\nGeneral\r\nComplete name                            : F:UploadsUmphrey's McGee - 2016-02-03 New Haven, CTUmphrey's McGee - 2016-02-03 New Haven, CT.mp4\r\nFormat                                   : MPEG-4\r\nFormat profile                           : Base Media / Version 2\r\nCodec ID                                 : mp42\r\nFile size                                : 2.79 GiB\r\nDuration                                 : 2h 33mn\r\nOverall bit rate mode                    : Variable\r\nOverall bit rate                         : 2 608 Kbps\r\nEncoded date                             : UTC 2036-02-06 06:28:16\r\nTagged date                              : UTC 2036-02-06 06:28:16\r\nWriting application                      : HandBrake 0.10.2 2015060900\r\n\r\nVideo\r\nID                                       : 1\r\nFormat                                   : AVC\r\nFormat/Info                              : Advanced Video Codec\r\nFormat profile                           :   \r\nFormat settings, CABAC                   : Yes\r\nFormat settings, ReFrames                : 5 frames\r\nCodec ID                                 : avc1\r\nCodec ID/Info                            : Advanced Video Coding\r\nDuration                                 : 2h 33mn\r\nBit rate                                 : 2 409 Kbps\r\nWidth                                    : 1 280 pixels\r\nHeight                                   : 720 pixels\r\nDisplay aspect ratio                     : 16:9\r\nFrame rate mode                          : Variable\r\nFrame rate                               : 29.970 fps\r\nMinimum frame rate                       : 5.705 fps\r\nMaximum frame rate                       : 280.374 fps\r\nColor space                              : YUV\r\nChroma subsampling                       : 4:2:0\r\nBit depth                                : 8 bits\r\nScan type                                : Progressive\r\nBits/(Pixel*Frame)                       : 0.087\r\nStream size                              : 2.58 GiB (92%)\r\nWriting library                          : x264 core 142 r2479 dd79a61\r\nEncoding settings                        : cabac=1 / ref=5 / deblock=1:0:0 / analyse=0x3:0x113 / me=umh / subme=8 / psy=1 / psy_rd=1.00:0.00 / mixed_ref=1 / me_range=16 / chroma_me=1 / trellis=1 / 8x8dct=1 / cqm=0 / deadzone=21,11 / fast_pskip=1 / chroma_qp_offset=-2 / threads=12 / lookahead_threads=2 / sliced_threads=0 / nr=0 / decimate=1 / interlaced=0 / bluray_compat=0 / constrained_intra=0 / bframes=3 / b_pyramid=2 / b_adapt=2 / b_bias=0 / direct=3 / weightb=1 / open_gop=0 / weightp=2 / keyint=240 / keyint_min=24 / scenecut=40 / intra_refresh=0 / rc_lookahead=50 / rc=crf / mbtree=1 / crf=20.0 / qcomp=0.60 / qpmin=0 / qpmax=69 / qpstep=4 / vbv_maxrate=62500 / vbv_bufsize=78125 / crf_max=0.0 / nal_hrd=none / filler=0 / ip_ratio=1.40 / aq=1:1.00\r\nEncoded date                             : UTC 2036-02-06 06:28:16\r\nTagged date                              : UTC 2036-02-06 06:28:16\r\nColor primaries                          : BT.709\r\nTransfer characteristics                 : BT.709\r\nMatrix coefficients                      : BT.709\r\n\r\nAudio\r\nID                                       : 2\r\nFormat                                   : AAC\r\nFormat/Info                              : Advanced Audio Codec\r\nFormat profile                           : LC\r\nCodec ID                                 : 40\r\nDuration                                 : 2h 33mn\r\nBit rate mode                            : Variable\r\nBit rate                                 : 192 Kbps\r\nChannel(s)                               : 2 channels\r\nChannel positions                        : Front: L R\r\nSampling rate                            : 48.0 KHz\r\nCompression mode                         : Lossy\r\nStream size                              : 210 MiB (7%)\r\nTitle                                    : Stereo\r\nEncoded date                             : UTC 2036-02-06 06:28:16\r\nTagged date                              : UTC 2036-02-06 06:28:16","torrent":{"xt":"urn:btih:60a3895089ef7db57df6e89b456915656574c868","amp;dn":"Umphrey%27s+McGee+-+2016-02-03+-+New+Haven%2C+CT+%28720p+TourGigs+Rip%29","amp;tr":["udp%3A%2F%2Ftracker.leechers-paradise.org%3A6969","udp%3A%2F%2Fzer0day.ch%3A1337","udp%3A%2F%2Fopen.demonii.com%3A1337","udp%3A%2F%2Ftracker.coppersurfer.tk%3A6969","udp%3A%2F%2Fexodus.desync.com%3A6969"],"infoHash":"60a3895089ef7db57df6e89b456915656574c868","infoHashBuffer":{"type":"Buffer","data":[96,163,137,80,137,239,125,181,125,246,232,155,69,105,21,101,101,116,200,104]},"announce":[],"urlList":[]}}